<svg width="48" height="42" viewBox="0 0 48 42" fill="none" xmlns="http://www.w3.org/2000/svg">
<path fill-rule="evenodd" clip-rule="evenodd" d="M5.71223 0.264489C2.42219 1.20045 1.06789 6.01611 2.31678 12.339L2.55488 13.5449L1.87852 14.6235C-0.236408 17.9968 -0.457201 21.3504 0.675956 32.8977C1.26806 38.9301 4.16808 41.3247 10.5541 41.0538C15.056 40.8627 17.7936 39.532 19.0063 36.9456L19.4697 35.957L19.4236 29.6199L19.3772 23.2829H24.0405H28.7039L28.5864 28.9219C28.4348 36.2012 28.5659 36.9687 30.2466 38.6338C33.3548 41.713 41.5548 41.9943 44.8354 39.1345C46.5237 37.6627 47.1959 35.5282 47.6252 30.2755C48.4013 20.7818 48.0282 17.1645 45.9774 14.297L45.4895 13.615L45.7488 12.2866C46.4968 8.45217 46.0344 3.76273 44.7196 1.85182C42.6498 -1.15642 33.1237 -0.166258 29.6213 3.42097L28.6993 4.36532L27.2312 3.92479C25.1769 3.30821 22.8507 3.30891 20.7924 3.92653L19.318 4.36899L18.5465 3.511C16.4117 1.13647 9.12569 -0.706614 5.71223 0.264489ZM11.6904 4.65849C13.5274 5.13049 15.1913 5.74777 15.1817 5.95388C15.1789 6.01419 14.2368 6.48602 13.0882 7.00242C11.9395 7.51883 9.91621 8.5485 8.5918 9.29059L6.18371 10.6396L6.04281 10.0124C5.77272 8.80915 5.97096 5.05532 6.33388 4.50238L6.65869 4.00747L8.25685 4.09715C9.13565 4.14645 10.6809 4.39906 11.6904 4.65849ZM41.8021 4.75236C42.1156 5.3796 42.2215 9.10563 41.9567 10.1846L41.8462 10.6346L39.2715 9.20143C37.8553 8.41319 35.832 7.38474 34.775 6.91589C33.7183 6.44703 32.8512 6.01419 32.8484 5.95388C32.8379 5.73501 34.6167 5.08924 36.3753 4.67352C39.9819 3.82077 41.3467 3.84052 41.8021 4.75236ZM26.7868 8.00202C33.3124 9.69022 41.9385 14.8363 43.3914 17.9076C44.4576 20.1615 44.2219 32.1772 43.0569 34.9663C41.914 37.7024 36.6347 38.2174 33.1358 35.9339L32.4671 35.4974L32.5115 29.1717C32.5815 19.2242 32.5599 19.199 24.0149 19.202C15.4921 19.2049 15.4713 19.2296 15.4575 29.3932L15.449 35.5911L14.6623 36.0769C12.8797 37.1778 8.64949 37.7047 7.05779 37.0241C4.75232 36.0385 4.37716 34.6097 3.98924 25.337C3.64521 17.1115 4.73903 15.4611 13.3353 11.2352C20.0631 7.9279 23.3998 7.12584 26.7868 8.00202ZM9.55119 28.9757C8.10424 29.7608 8.32975 31.9109 9.90869 32.384C12.0657 33.0301 13.2777 29.9367 11.2453 28.9722C10.5448 28.6399 10.1688 28.6406 9.55119 28.9757ZM36.7569 28.9785C34.7937 29.947 36.0203 33.0133 38.1193 32.3845C39.7202 31.9048 39.9258 29.7341 38.443 28.9674C37.8022 28.6359 37.4466 28.6383 36.7569 28.9785ZM22.529 32.5048C21.6355 32.9511 21.6575 33.3939 22.6173 34.2784C23.3786 34.9802 23.4185 35.0628 23.3685 35.838C23.309 36.7582 22.6797 37.1442 22.4449 36.4042C22.2949 35.9319 21.5569 35.9242 21.3062 36.3925C20.8711 37.2056 22.1336 38.3277 23.1832 38.0609C23.4484 37.9936 23.8226 37.9386 24.0149 37.9386C24.2072 37.9386 24.5815 37.9936 24.8467 38.0609C25.8963 38.3277 27.1588 37.2056 26.7237 36.3925C26.4812 35.9394 25.9379 35.9479 25.6143 36.41C25.1708 37.043 24.7219 36.7727 24.6614 35.8364C24.6114 35.0632 24.6516 34.98 25.4126 34.2784C26.6786 33.1114 26.0654 32.199 24.0149 32.199C23.5326 32.199 22.8666 32.3361 22.529 32.5048Z" fill="#181818"/>
</svg>
